<svg width="24" height="24" viewBox="0 0 24 24" fill="none" xmlns="http://www.w3.org/2000/svg">
<path fill-rule="evenodd" clip-rule="evenodd" d="M4.81155 8.586C5.22815 4.83658 8.39736 2 12.1699 2C15.9423 2 19.1116 4.83658 19.5282 8.586L19.6757 9.91346C19.7934 10.9388 20.1271 11.9276 20.6549 12.8145L20.7624 12.9938C20.7716 13.009 20.7806 13.0239 20.7894 13.0386C20.9281 13.2698 21.0291 13.4379 21.0918 13.5747C21.8588 15.2474 20.7643 17.1806 18.9352 17.3835C18.7857 17.4001 18.5896 17.4001 18.3201 17.4C18.3029 17.4 18.2854 17.4 18.2677 17.4H6.07202C6.05426 17.4 6.0368 17.4 6.01965 17.4C5.7501 17.4001 5.55399 17.4001 5.40448 17.3835C3.57546 17.1806 2.48093 15.2474 3.24793 13.5747C3.31063 13.4379 3.41157 13.2698 3.55031 13.0387C3.55914 13.024 3.56812 13.009 3.57726 12.9938L3.68476 12.8145C4.21259 11.9276 4.54634 10.9388 4.664 9.91346L4.81155 8.586ZM12.1699 3.4C9.11073 3.4 6.54081 5.70019 6.20298 8.7406L6.05488 10.0731C5.91465 11.2951 5.51688 12.4735 4.88783 13.5305L4.77775 13.7141C4.60088 14.0089 4.54605 14.1025 4.52053 14.1582C4.15124 14.9636 4.67823 15.8944 5.55887 15.9921C5.61973 15.9988 5.72825 16 6.07202 16H18.2677C18.6115 16 18.72 15.9988 18.7808 15.9921C19.6615 15.8944 20.1885 14.9636 19.8192 14.1582C19.7937 14.1025 19.7388 14.0089 19.562 13.7141L19.4519 13.5305C18.8228 12.4735 18.4251 11.2951 18.2848 10.0731L18.1367 8.7406C17.7989 5.70019 15.229 3.4 12.1699 3.4Z" fill="#417FFF"/>
<path fill-rule="evenodd" clip-rule="evenodd" d="M9.16973 18C9.55633 18 9.86973 18.3134 9.86973 18.7C9.86973 18.8456 9.9436 19.157 10.2453 19.4364C10.5365 19.706 11.1015 20 12.1697 20C13.238 20 13.8029 19.706 14.0941 19.4364C14.3959 19.157 14.4697 18.8456 14.4697 18.7C14.4697 18.3134 14.7831 18 15.1697 18C15.5563 18 15.8697 18.3134 15.8697 18.7C15.8697 19.2211 15.6436 19.9097 15.0453 20.4636C14.4365 21.0273 13.5015 21.4 12.1697 21.4C10.838 21.4 9.90292 21.0273 9.29414 20.4636C8.69585 19.9097 8.46973 19.2211 8.46973 18.7C8.46973 18.3134 8.78313 18 9.16973 18Z" fill="#417FFF"/>
<path d="M22 3.5C22 4.32843 21.3284 5 20.5 5C19.6716 5 19 4.32843 19 3.5C19 2.67157 19.6716 2 20.5 2C21.3284 2 22 2.67157 22 3.5Z" fill="#FF6D3B"/>
<path d="M22 3.5C22 4.32843 21.3284 5 20.5 5C19.6716 5 19 4.32843 19 3.5C19 2.67157 19.6716 2 20.5 2C21.3284 2 22 2.67157 22 3.5Z" fill="#FF6D3B"/>
</svg>
