<svg width="24" height="24" viewBox="0 0 24 24" fill="currentColor" xmlns="http://www.w3.org/2000/svg">
  <path fill-rule="evenodd" clip-rule="evenodd" d="M10.8311 1H10.7403H10.7403C8.89703 0.999992 7.45216 0.999986 6.30584 1.12418C5.13603 1.25092 4.1882 1.5142 3.37892 2.10218C2.88899 2.45813 2.45813 2.88899 2.10218 3.37892C1.5142 4.1882 1.25092 5.13603 1.12418 6.30584C0.999986 7.45216 0.999992 8.89703 1 10.7403V10.7403V10.8311V10.8311C0.999992 12.6744 0.999986 14.1193 1.12418 15.2656C1.25092 16.4354 1.5142 17.3832 2.10218 18.1925C2.45813 18.6824 2.88898 19.1133 3.37892 19.4693C4.1882 20.0572 5.13603 20.3205 6.30584 20.4473C7.45212 20.5714 8.89694 20.5714 10.7401 20.5714H10.7403H10.7968C11.0306 20.5714 11.2578 20.5714 11.4787 20.5712C11.0795 19.7014 10.8569 18.7337 10.8569 17.7141C10.8569 13.927 13.927 10.8569 17.7141 10.8569C18.7338 10.8569 19.7015 11.0795 20.5713 11.4787V11.3717L20.5714 10.7968V10.7403V10.7401L20.5713 10.173V6.57129C20.5713 5.57095 20.2775 4.63922 19.7716 3.85767C19.6817 3.69266 19.5814 3.53327 19.4693 3.37892C19.1133 2.88898 18.6824 2.45813 18.1925 2.10218C17.3832 1.5142 16.4354 1.25092 15.2656 1.12418C14.1193 0.999986 12.6744 0.999992 10.8311 1H10.8311ZM17.4449 12.7998C14.8795 12.7998 12.7998 14.8795 12.7998 17.4449C12.7998 20.0103 14.8795 22.09 17.4449 22.09C18.4245 22.09 19.3333 21.7868 20.0825 21.269L22.0143 23.1456C22.3312 23.4534 22.8377 23.4461 23.1455 23.1292C23.4534 22.8122 23.446 22.3058 23.1291 21.9979L21.2237 20.147C21.769 19.3857 22.09 18.4528 22.09 17.4449C22.09 14.8795 20.0103 12.7998 17.4449 12.7998ZM14.3998 17.4449C14.3998 15.7631 15.7631 14.3998 17.4449 14.3998C19.1267 14.3998 20.49 15.7631 20.49 17.4449C20.49 19.1267 19.1267 20.49 17.4449 20.49C15.7631 20.49 14.3998 19.1267 14.3998 17.4449Z" />
  <path d="M8.52379 6.66713L5.38093 6.66713C4.94699 6.66713 4.59521 6.31536 4.59521 5.88142C4.59521 5.44748 4.94699 5.0957 5.38093 5.0957H8.52379C8.95772 5.0957 9.3095 5.44748 9.3095 5.88142C9.3095 6.31536 8.95772 6.66713 8.52379 6.66713Z" fill="#F2F3F4"/>
  <path d="M12.0713 10.0719C12.0713 10.5058 11.7195 10.8576 11.2856 10.8576L5.38093 10.8576C4.94699 10.8576 4.59521 10.5058 4.59521 10.0719C4.59521 9.63795 4.94699 9.28618 5.38093 9.28618L11.2856 9.28618C11.7195 9.28618 12.0713 9.63795 12.0713 10.0719Z" fill="#F2F3F4"/>
</svg>
