<svg width="24" height="25" viewBox="0 0 24 25" fill="none" xmlns="http://www.w3.org/2000/svg">
<path fill-rule="evenodd" clip-rule="evenodd" d="M6.02086 18.6814C7.56844 20.1787 9.67663 21.1 12 21.1C14.3234 21.1 16.4316 20.1787 17.9792 18.6814C16.5138 17.3431 14.3781 16.5 12 16.5C9.62193 16.5 7.4862 17.3431 6.02086 18.6814ZM18.9126 19.7261C17.1169 21.4444 14.6817 22.5 12 22.5C9.38757 22.5 7.00911 21.4982 5.22781 19.8579C5.22557 19.8558 5.22334 19.8538 5.2211 19.8517C5.20826 19.8399 5.19545 19.828 5.18267 19.8161C5.19517 19.8277 5.2077 19.8393 5.22027 19.8509L5.22035 19.851C5.17566 19.8098 5.13134 19.7681 5.0874 19.7261M5.08712 19.7258C5.07299 19.7123 5.05889 19.6987 5.04483 19.6851C4.81562 19.4632 4.597 19.2304 4.3898 18.9876C4.21372 18.7812 4.04589 18.5676 3.88682 18.3473C2.69959 16.7029 2 14.6832 2 12.5C2 6.97715 6.47715 2.5 12 2.5C17.5228 2.5 22 6.97715 22 12.5C22 14.9757 21.1004 17.2412 19.6102 18.9876C19.604 18.9948 19.5978 19.002 19.5916 19.0093C19.5916 19.0093 19.5916 19.0094 19.5915 19.0094C19.377 19.2593 19.1504 19.4985 18.9126 19.7261M16 11.0581C16 13.2672 14.2091 15.0581 12 15.0581C9.79086 15.0581 8 13.2672 8 11.0581C8 8.84897 9.79086 7.05811 12 7.05811C14.2091 7.05811 16 8.84897 16 11.0581Z" />
</svg>
