<svg width="24" height="24" viewBox="0 0 24 24" fill="none" xmlns="http://www.w3.org/2000/svg">
<path fill-rule="evenodd" clip-rule="evenodd" d="M6.02086 18.1814C7.56844 19.6787 9.67663 20.6 12 20.6C14.3234 20.6 16.4316 19.6787 17.9792 18.1814C16.5138 16.8431 14.3781 16 12 16C9.62193 16 7.4862 16.8431 6.02086 18.1814ZM18.9126 19.2261C17.1169 20.9444 14.6817 22 12 22C9.38757 22 7.00911 20.9982 5.22781 19.3579C5.22557 19.3558 5.22334 19.3538 5.2211 19.3517C5.20826 19.3399 5.19545 19.328 5.18267 19.3161C5.19517 19.3277 5.2077 19.3393 5.22027 19.3509L5.22035 19.351C5.17566 19.3098 5.13134 19.2681 5.0874 19.2261M5.08712 19.2258C5.07299 19.2123 5.05889 19.1987 5.04483 19.1851C4.81562 18.9632 4.597 18.7304 4.3898 18.4876C4.21372 18.2812 4.04589 18.0676 3.88682 17.8473C2.69959 16.2029 2 14.1832 2 12C2 6.47715 6.47715 2 12 2C17.5228 2 22 6.47715 22 12C22 14.4757 21.1004 16.7412 19.6102 18.4876C19.604 18.4948 19.5978 18.502 19.5916 18.5093C19.5916 18.5093 19.5916 18.5094 19.5915 18.5094C19.377 18.7593 19.1504 18.9985 18.9126 19.2261M16 10.5581C16 12.7672 14.2091 14.5581 12 14.5581C9.79086 14.5581 8 12.7672 8 10.5581C8 8.34897 9.79086 6.55811 12 6.55811C14.2091 6.55811 16 8.34897 16 10.5581Z" fill="#C6C9CE"/>
</svg>
