<svg width="24" height="24" viewBox="0 0 24 24" fill="none" xmlns="http://www.w3.org/2000/svg">
<path fill-rule="evenodd" clip-rule="evenodd" d="M3.27273 11.9536C3.27272 10.8461 3.27329 9.91125 3.29672 9.10929H20.7033C20.7267 9.91126 20.7273 10.8461 20.7273 11.9536V12.0113C20.7273 13.208 20.7271 14.2069 20.6979 15.0597C20.6326 16.9643 20.4214 18.0263 19.844 18.8209C19.5588 19.2135 19.2135 19.5588 18.8209 19.844C18.0263 20.4214 16.9643 20.6326 15.0597 20.6979C14.2069 20.7271 13.208 20.7273 12.0113 20.7273H11.9534C10.0429 20.7273 8.64636 20.7256 7.55912 20.6078C6.47198 20.49 5.75298 20.261 5.1791 19.844C4.78649 19.5588 4.44122 19.2135 4.15597 18.8209C3.73902 18.247 3.51001 17.528 3.39222 16.4409C3.27442 15.3536 3.27272 13.957 3.27273 12.0464V11.9536ZM3.12631 19.569C2.52546 18.742 2.25642 17.7734 2.1269 16.578C1.99999 15.4066 1.99999 13.93 2 12.0464V11.9536C1.99999 10.07 1.99999 8.59345 2.1269 7.42203C2.25642 6.2266 2.52546 5.25801 3.12631 4.43101C3.49006 3.93035 3.93035 3.49006 4.43101 3.12631C5.25801 2.52546 6.2266 2.25642 7.42203 2.1269C8.59345 1.99999 10.07 1.99999 11.9536 2H12.0464C13.93 1.99999 15.4066 1.99999 16.578 2.1269C17.7734 2.25642 18.742 2.52546 19.569 3.12631C20.0696 3.49006 20.5099 3.93035 20.8737 4.43101C21.4745 5.25801 21.7436 6.22661 21.8731 7.42203C22 8.59341 22 10.07 22 11.9536V12.0113C22 13.2011 22 14.2241 21.9699 15.1033C21.904 17.0247 21.6961 18.437 20.8737 19.569C20.5099 20.0696 20.0696 20.5099 19.569 20.8737C18.437 21.6961 17.0247 21.904 15.1033 21.9699C14.2241 22 13.2011 22 12.0113 22H11.9534C10.0699 22 8.59341 22 7.42203 21.8731C6.22661 21.7436 5.25801 21.4745 4.43101 20.8737C3.93035 20.5099 3.49006 20.0696 3.12631 19.569ZM8.36364 14.7273C8.86571 14.7273 9.27273 14.3203 9.27273 13.8182C9.27273 13.3161 8.86571 12.9091 8.36364 12.9091C7.86156 12.9091 7.45455 13.3161 7.45455 13.8182C7.45455 14.3203 7.86156 14.7273 8.36364 14.7273ZM12.9091 13.8182C12.9091 14.3203 12.5021 14.7273 12 14.7273C11.4979 14.7273 11.0909 14.3203 11.0909 13.8182C11.0909 13.3161 11.4979 12.9091 12 12.9091C12.5021 12.9091 12.9091 13.3161 12.9091 13.8182ZM15.6364 14.7273C16.1384 14.7273 16.5455 14.3203 16.5455 13.8182C16.5455 13.3161 16.1384 12.9091 15.6364 12.9091C15.1343 12.9091 14.7273 13.3161 14.7273 13.8182C14.7273 14.3203 15.1343 14.7273 15.6364 14.7273Z" fill="#C6C9CE"/>
</svg>
